<?xml version="1.0" encoding="UTF-8"?>
<svg id="Ebene_1" data-name="Ebene 1" xmlns="http://www.w3.org/2000/svg" viewBox="0 0 62.94 69.1">
  <path d="m62.9,31.48c-.1,2.7-.5,5.34-1.19,7.92-.67,2.55-1.69,4.86-3.05,6.91-1.36,2.06-3.1,3.69-5.2,4.91-2.08,1.21-4.6,1.82-7.55,1.82-3.15,0-5.72-1.03-7.73-3.09-2.01-2.06-2.92-4.84-2.75-8.36l1.9-22.04h8.92l-1.9,22.04c-.12.84-.12,1.55,0,2.12.15.55.38.99.71,1.34.35.32.74.56,1.19.71.45.12.92.19,1.41.19,1.36,0,2.58-.61,3.64-1.82,1.07-1.24,1.92-2.91,2.56-5.02.67-2.13,1.04-4.52,1.12-7.17.25-4.93-.37-9.28-1.86-13.05-1.49-3.77-3.88-6.7-7.17-8.81-3.27-2.13-7.5-3.2-12.67-3.2s-9.27,1.28-12.86,3.83c-3.57,2.53-6.36,5.95-8.36,10.26-1.98,4.29-3.11,9.09-3.38,14.42-.2,4.44.15,8.29,1.04,11.56.92,3.25,2.33,5.93,4.24,8.07,1.91,2.13,4.29,3.72,7.14,4.76,2.87,1.04,6.16,1.56,9.85,1.56,2.16,0,4.35-.24,6.58-.71,2.25-.45,4.16-.98,5.72-1.6l1.45,6.76c-1.73,1.12-3.92,1.95-6.54,2.49-2.6.55-5.06.82-7.36.82-6.72,0-12.41-1.25-17.1-3.75-4.68-2.48-8.2-6.22-10.56-11.23C.8,49.14-.23,42.89.04,35.39c.22-5.06,1.15-9.74,2.79-14.05,1.64-4.31,3.89-8.05,6.76-11.23,2.9-3.2,6.36-5.67,10.37-7.43,4.01-1.78,8.5-2.68,13.46-2.68,6.52,0,12.02,1.34,16.5,4.01,4.49,2.65,7.83,6.34,10.04,11.08,2.23,4.73,3.21,10.2,2.94,16.39Zm-36.8,4.46c-.15,2.06-.09,3.78.19,5.17.27,1.36.76,2.39,1.45,3.09.72.67,1.62,1,2.71,1,.5,0,1.08-.16,1.75-.48.69-.35,1.39-1.04,2.08-2.08.72-1.04,1.33-2.6,1.82-4.68l3.68,4.65c-1.14,3.42-2.76,5.98-4.87,7.69-2.08,1.71-4.62,2.56-7.62,2.56-2.4,0-4.5-.69-6.28-2.08-1.78-1.39-3.11-3.35-3.98-5.87-.87-2.55-1.14-5.54-.82-8.96.52-4.16,1.61-7.77,3.27-10.82,1.66-3.07,3.75-5.45,6.28-7.14,2.55-1.69,5.4-2.53,8.55-2.53s5.34.42,7.03,1.26c1.69.84,3.32,1.78,4.91,2.82l-4.31,6.43c-.69-.62-1.62-1.23-2.79-1.82-1.14-.62-2.49-.93-4.05-.93-1.96,0-3.54.5-4.76,1.49-1.21.99-2.16,2.43-2.82,4.31-.64,1.88-1.12,4.19-1.41,6.91Z" style="fill: #d55143; stroke-width: 0px;"/>
</svg>